<?xml version="1.0" standalone="yes"?>
<svg xmlns="http://www.w3.org/2000/svg" width="222" height="365">
<path style="fill:#f1f1f1; stroke:none;" d="M0 0L0 215L1 215C1.00497 169.967 31.9089 131.601 69 109.204C79.0654 103.126 89.8632 97.8013 101 94.0031C109.121 91.2334 119.752 87.8882 123.106 79C125.809 71.8346 120.621 64.8994 115.96 60C104.679 48.1417 90.4054 39.3819 76 31.7809C72.4948 29.9313 55.644 24.1996 57.9213 19.0501C59.9151 14.5417 67.5691 11.6977 72 10.6805C87.9199 7.02612 101.345 15.9917 116 20C122.02 10.209 129.945 2.05911 142 1C130.782 -3.70721 111.206 0 99 0L0 0z"/>
<path style="fill:#0165a8; stroke:none;" d="M116 20C108.683 17.1611 101.59 13.8484 94 11.7454C84.9192 9.22931 73.6561 8.60016 65 12.821C62.0886 14.2406 54.4506 18.1663 57.662 22.3634C60.8868 26.578 69.3625 28.8649 74 31.2585C89.2688 39.1393 104.075 48.5032 115.96 61C125.793 71.3402 125.418 82.0395 112 89C119.685 103.912 141.819 113.226 143 131L170 136.453L195 152C209.3 115.131 220.42 71.2422 197.934 35C182.277 9.76306 133.883 -21.4379 116 20z"/>
<path style="fill:#f1f1f1; stroke:none;" d="M154 0L154 1C165.824 2.21106 176.942 11.9437 184.999 20.0008C209.521 44.5222 214.831 79.0937 207.576 112C204.537 125.783 198.695 138.492 195 152C160.225 121.716 110.067 128.345 74 153.721C58.0326 164.955 40.5736 186.906 43.4545 208C45.9465 226.247 70.7474 238.69 86 244.989C92.4395 247.649 107.501 251.093 107.544 260C107.578 267.035 97.2973 275.92 93.081 281C79.9972 296.765 62.3104 313.762 53 332C80.0171 331.925 115.739 333.788 141 323.547C177.249 308.851 194.432 264.753 183 229C199.037 242.015 219.168 256.602 221 279L222 279L222 0L154 0z"/>
<path style="fill:#bebfbf; stroke:none;" d="M145 21L146 22L145 21z"/>
<path style="fill:#f1f1f1; stroke:none;" d="M146.108 21.7863C139.384 24.2199 143.16 34.6502 149.892 32.2137C156.616 29.7801 152.84 19.3498 146.108 21.7863z"/>
<path style="fill:#bebfbf; stroke:none;" d="M150 21L151 22L150 21z"/>
<path style="fill:#6f9bb9; stroke:none;" d="M143 22L144 23L143 22M152 22L153 23L152 22z"/>
<path style="fill:#bebfbf; stroke:none;" d="M142 24L143 25L142 24M153 24L154 25L153 24M142 29L143 30L142 29M153 29L154 30L153 29z"/>
<path style="fill:#6f9bb9; stroke:none;" d="M143 31L144 32L143 31M152 31L153 32L152 31z"/>
<path style="fill:#bebfbf; stroke:none;" d="M145 32L146 33L145 32M150 32L151 33L150 32z"/>
<path style="fill:#014e81; stroke:none;" d="M143 131C142.501 114.126 121.789 103.004 113 90C42.7423 102.09 -10.1414 174.455 2.42438 244C6.95535 269.077 18.2412 292.469 33.152 313C36.6112 317.763 44.2714 331.364 50.9105 331.364C56.2496 331.364 62.605 319.744 65.6003 316C76.8521 301.936 88.3492 288.065 99.6003 274C103.419 269.227 110.336 262.739 106.82 256.043C103.15 249.053 90.7473 246.675 84 243.716C70.3047 237.709 53.9143 228.177 46.0085 215C38.8409 203.054 47.1068 185.147 54.0285 175C75.2537 143.886 108.81 137.348 143 131z"/>
<path style="fill:#6f9bb9; stroke:none;" d="M130 141L130 142L135 142L130 141z"/>
<path style="fill:#bebfbf; stroke:none;" d="M108 148L105 147L87 155L82 158C70.5054 172.121 57.1726 178.44 58.0548 198.961C58.2266 202.957 61.2827 215.879 67.0046 215.079C70.7189 214.559 74.4555 208.481 77.0008 206.039C84.0277 199.299 104.621 184.04 115 190C117.568 187.432 117.122 181.658 122 178C134.389 168.708 154.914 164.714 170 171C174.375 172.823 176.281 176.972 180 179C183.507 180.913 190.905 173.627 192 171C195.652 162.236 186.313 154.157 180 151C163.783 142.891 145.106 138.224 126 143C120.435 144.391 108.65 144.751 108 148z"/>
<path style="fill:#6f9bb9; stroke:none;" d="M150 141L150 142L154 142L150 141M124 142L124 143L127 143L124 142M157 142L157 143L160 143L157 142M119 143L119 144L122 144L119 143M161.667 143.333L162.333 143.667L161.667 143.333M115 144L115 145L118 145L115 144M164.667 144.333L165.333 144.667L164.667 144.333M112.667 145.333L113.333 145.667L112.667 145.333M167.667 145.333L168.333 145.667L167.667 145.333M109 146L110 147L109 146M170 146L171 147L170 146M106.667 147.333L107.333 147.667L106.667 147.333M172.667 147.333L173.333 147.667L172.667 147.333M103.667 148.333L104.333 148.667L103.667 148.333M174 148L175 149L174 148M100.667 149.333L101.333 149.667L100.667 149.333M176 149L177 150L176 149M98.6667 150.333L99.3333 150.667L98.6667 150.333M96 151L97 152L96 151M93.6667 152.333L94.3333 152.667L93.6667 152.333M91.6667 153.333L92.3333 153.667L91.6667 153.333M89.6667 154.333L90.3333 154.667L89.6667 154.333M88 155L89 156L88 155M86 156L87 157L86 156M84 157L85 158L84 157M83 158L84 159L83 158M81 159L82 160L81 159M80 160L81 161L80 160M78 161L79 162L78 161M77 162L78 163L77 162M76 163L77 164L76 163M74 164L75 165L74 164M73 165L74 166L73 165M72 166L73 167L72 166M71 167L72 168L71 167M70 168L71 169L70 168M147 168L147 169L151 169L147 168z"/>
<path style="fill:#0165a8; stroke:none;" d="M137 205L150.91 208.211L159.25 200L178 177C171.157 163.314 142.838 168.484 132 173C129.437 174.068 122.168 175.788 121 179C120.154 181.326 124.7 185.267 126 187C128.971 190.961 137.5 203.002 137 205z"/>
<path style="fill:#6f9bb9; stroke:none;" d="M156 168L156 169L160 169L156 168M69 169L70 170L69 169M141.667 169.333L142.333 169.667L141.667 169.333M163.667 169.333L164.333 169.667L163.667 169.333M68 170L69 171L68 170M137.667 170.333L138.333 170.667L137.667 170.333M167 170L168 171L167 170M134 171L135 172L134 171M170 171L171 172L170 171M132 172L133 173L132 172M172 172L173 173L172 172M174 173L175 174L174 173M65 174L66 175L65 174M64 175L65 176L64 175M126 175L127 176L126 175M177 175L178 176L177 175M63.3333 176.667L63.6667 177.333L63.3333 176.667M124 176L125 177L124 176M62 178L63 179L62 178M121 178L122 179L121 178M120 179L117 183L120 179M61 180L62 181L61 180z"/>
<path style="fill:#014e81; stroke:none;" d="M138 204L138 203L122 180C105.751 188.449 128.454 203.022 138 204z"/>
<path style="fill:#6f9bb9; stroke:none;" d="M60 182L61 183L60 182z"/>
<path style="fill:#0165a8; stroke:none;" d="M117 183L118 184L117 183z"/>
<path style="fill:#6f9bb9; stroke:none;" d="M116 184L117 185L116 184z"/>
<path style="fill:#0165a8; stroke:none;" d="M116 185L117 186L116 185z"/>
<path style="fill:#6f9bb9; stroke:none;" d="M58 189L59 190L58 189z"/>
<path style="fill:#0165a8; stroke:none;" d="M116 190L117 191L116 190z"/>
<path style="fill:#6f9bb9; stroke:none;" d="M116 191L117 192L116 191z"/>
<path style="fill:#0165a8; stroke:none;" d="M117 192L119 194L117 192z"/>
<path style="fill:#bebfbf; stroke:none;" d="M117 193L118 194L117 193M118 194L119 195L118 194z"/>
<path style="fill:#6f9bb9; stroke:none;" d="M119 195L120 196L119 195z"/>
<path style="fill:#0165a8; stroke:none;" d="M120 195L123 198L120 195z"/>
<path style="fill:#bebfbf; stroke:none;" d="M120 196L121 197L120 196M121 197L122 198L121 197z"/>
<path style="fill:#6f9bb9; stroke:none;" d="M123 198L124 199L123 198z"/>
<path style="fill:#bebfbf; stroke:none;" d="M124 199L125 200L124 199z"/>
<path style="fill:#0165a8; stroke:none;" d="M125 199L126 200L125 199z"/>
<path style="fill:#6f9bb9; stroke:none;" d="M126 200L127 201L126 200z"/>
<path style="fill:#0165a8; stroke:none;" d="M127 200L128 201L127 200z"/>
<path style="fill:#bebfbf; stroke:none;" d="M127 201L128 202L127 201z"/>
<path style="fill:#6f9bb9; stroke:none;" d="M128 201L129 202L128 201z"/>
<path style="fill:#0165a8; stroke:none;" d="M129 201L130 202L129 201z"/>
<path style="fill:#6f9bb9; stroke:none;" d="M58 202L59 203L58 202z"/>
<path style="fill:#bebfbf; stroke:none;" d="M129 202L130 203L129 202z"/>
<path style="fill:#6f9bb9; stroke:none;" d="M130 202L131 203L130 202z"/>
<path style="fill:#0165a8; stroke:none;" d="M131 202L132 203L131 202z"/>
<path style="fill:#6f9bb9; stroke:none;" d="M132 203L133 204L132 203z"/>
<path style="fill:#0165a8; stroke:none;" d="M133 203L134 204L133 203z"/>
<path style="fill:#bebfbf; stroke:none;" d="M134 204L135 205L134 204z"/>
<path style="fill:#6f9bb9; stroke:none;" d="M135.667 204.333L136.333 204.667L135.667 204.333M59 205L60 206L59 205z"/>
<path style="fill:#bebfbf; stroke:none;" d="M138 205L139 206L138 205z"/>
<path style="fill:#6f9bb9; stroke:none;" d="M139 205L140 206L139 205z"/>
<path style="fill:#bebfbf; stroke:none;" d="M141 206L142 207L141 206z"/>
<path style="fill:#6f9bb9; stroke:none;" d="M142.667 206.333L143.333 206.667L142.667 206.333z"/>
<path style="fill:#bebfbf; stroke:none;" d="M144 207L145 208L144 207z"/>
<path style="fill:#6f9bb9; stroke:none;" d="M145 207L146 208L145 207z"/>
<path style="fill:#bebfbf; stroke:none;" d="M147 208L148 209L147 208z"/>
<path style="fill:#6f9bb9; stroke:none;" d="M148 208L149 209L148 208M61 209L62 210L61 209z"/>
<path style="fill:#bebfbf; stroke:none;" d="M149 209L150 210L149 209z"/>
<path style="fill:#6f9bb9; stroke:none;" d="M150 209L151 210L150 209M66 216L67 217L66 216z"/>
<path style="fill:#bebfbf; stroke:none;" d="M67 217L68 218L67 217M68 218L74 224L68 218z"/>
<path style="fill:#6f9bb9; stroke:none;" d="M68 219L69 220L68 219M69 220L70 221L69 220M70 221L71 222L70 221M71 222L72 223L71 222M72 223L73 224L72 223z"/>
<path style="fill:#bebfbf; stroke:none;" d="M74 224L75 225L74 224M75 225L76 226L75 225z"/>
<path style="fill:#f1f1f1; stroke:none;" d="M0 226L0 365C5.72786 365 13.5819 366.395 19 364.397C30.5317 360.143 41.3926 341.679 50 333L50 332C31.3562 313.201 15.2389 288.47 7.43518 263C3.9027 251.471 4.46069 236.63 0 226z"/>
<path style="fill:#6f9bb9; stroke:none;" d="M76 226L77 227L76 226M77 227L78 228L77 227M78 228L79 229L78 228z"/>
<path style="fill:#bebfbf; stroke:none;" d="M79 228L80 229L79 228M182 228L183 229L182 228M80 229L81 230L80 229M183 229C185.546 240.105 188.064 250.451 186.826 262C185.719 272.34 181.278 282.625 175.254 291C168.347 300.603 160.907 310.95 151 317.64C129.631 332.072 100.655 329.881 76 330.961C68.197 331.302 58.4245 329.899 51 332.742C40.2907 336.844 26.5417 355.705 20 365L128 365C141.622 365 162.486 368.889 175 363.2C207.782 348.297 230.971 305.222 219.48 270C213.931 252.993 198.251 237.805 183 229z"/>
<path style="fill:#6f9bb9; stroke:none;" d="M81 230L82 231L81 230z"/>
<path style="fill:#bebfbf; stroke:none;" d="M82 230L83 231L82 230z"/>
<path style="fill:#6f9bb9; stroke:none;" d="M83 231L84 232L83 231z"/>
<path style="fill:#bebfbf; stroke:none;" d="M84 231L85 232L84 231z"/>
<path style="fill:#6f9bb9; stroke:none;" d="M85 232L86 233L85 232z"/>
<path style="fill:#bebfbf; stroke:none;" d="M86 232L87 233L86 232z"/>
<path style="fill:#6f9bb9; stroke:none;" d="M87 233L88 234L87 233z"/>
<path style="fill:#bebfbf; stroke:none;" d="M88 233L89 234L88 233z"/>
<path style="fill:#6f9bb9; stroke:none;" d="M89 234L90 235L89 234z"/>
<path style="fill:#bebfbf; stroke:none;" d="M90.6667 234.333L91.3333 234.667L90.6667 234.333z"/>
<path style="fill:#6f9bb9; stroke:none;" d="M92 235L93 236L92 235z"/>
<path style="fill:#bebfbf; stroke:none;" d="M93 235L94 236L93 235z"/>
<path style="fill:#6f9bb9; stroke:none;" d="M94 236L95 237L94 236z"/>
<path style="fill:#bebfbf; stroke:none;" d="M95 236L96 237L95 236z"/>
<path style="fill:#6f9bb9; stroke:none;" d="M96 237L97 238L96 237z"/>
<path style="fill:#bebfbf; stroke:none;" d="M97 237L98 238L97 237z"/>
<path style="fill:#6f9bb9; stroke:none;" d="M98 238L99 239L98 238z"/>
<path style="fill:#bebfbf; stroke:none;" d="M99 238L100 239L99 238M101 239L102 240L101 239z"/>
<path style="fill:#6f9bb9; stroke:none;" d="M103 240L104 241L103 240z"/>
<path style="fill:#bebfbf; stroke:none;" d="M104 240L105 241L104 240z"/>
<path style="fill:#6f9bb9; stroke:none;" d="M105 241L106 242L105 241z"/>
<path style="fill:#bebfbf; stroke:none;" d="M106 241L107 242L106 241z"/>
<path style="fill:#6f9bb9; stroke:none;" d="M107 242L108 243L107 242z"/>
<path style="fill:#bebfbf; stroke:none;" d="M108 242L109 243L108 242z"/>
<path style="fill:#6f9bb9; stroke:none;" d="M109 243L110 244L109 243z"/>
<path style="fill:#bebfbf; stroke:none;" d="M110 243L111 244L110 243M112.667 244.333L113.333 244.667L112.667 244.333z"/>
<path style="fill:#6f9bb9; stroke:none;" d="M114 245L115 246L114 245z"/>
<path style="fill:#bebfbf; stroke:none;" d="M115 245L116 246L115 245z"/>
<path style="fill:#6f9bb9; stroke:none;" d="M116 246L117 247L116 246z"/>
<path style="fill:#bebfbf; stroke:none;" d="M117 246L118 247L117 246z"/>
<path style="fill:#6f9bb9; stroke:none;" d="M118 247L119 248L118 247z"/>
<path style="fill:#bebfbf; stroke:none;" d="M119 247L120 248L119 247z"/>
<path style="fill:#f1f1f1; stroke:none;" d="M221 300C218.844 326.402 195.929 353.971 172 364L172 365L222 365L222 321L221 300z"/>
<path style="fill:#6f9bb9; stroke:none;" d="M50 332L51 333L50 332z"/>
</svg>
